<svg width="241" height="336" viewBox="0 0 241 336" fill="none" xmlns="http://www.w3.org/2000/svg">
<g clip-path="url(#clip0_3118_197)">
<path d="M217.375 123.703C218.267 110.623 218.074 97.4377 217.836 84.3122C217.271 53.0816 199.531 29.9077 169.383 21.524C161.375 19.2943 152.891 17.9119 144.6 17.7633C132.357 17.5403 120.114 17.4808 107.871 17.4808C97.2766 17.4808 77.6489 17.6146 67.1591 17.7484C63.2959 17.793 60.1906 20.9443 60.1906 24.8091C60.1906 55.3262 60.2203 178.866 60.0865 243.349C60.0865 247.957 61.4238 249.22 65.7327 249.22C65.8367 249.22 65.9407 249.22 66.0447 249.22C75.019 249.101 84.0083 249.057 92.9826 249.057C102.477 249.057 111.971 249.116 121.451 249.191C121.495 249.191 121.555 249.191 121.599 249.191C125.195 249.191 126.518 248.12 126.458 244.3C126.25 231.323 126.235 218.332 126.473 205.355C126.547 201.356 126.562 185.689 126.562 185.689C126.562 185.689 136.591 186.358 141.004 186.358C160.543 186.358 179.963 180.605 193.929 169.234C208.297 157.535 216.113 142.061 217.361 123.733L217.375 123.703Z" fill="black"/>
<path d="M77.7232 305.973C77.1735 305.973 76.6237 305.869 76.0888 305.661L57.4269 298.333C51.4985 295.999 48.5715 289.295 50.9042 283.364L69.2392 236.66C70.1456 234.356 72.7457 233.226 75.0339 234.133C77.3369 235.039 78.4662 237.641 77.5598 239.93L59.2248 286.635C58.7047 287.958 59.3585 289.474 60.6809 289.994L79.3428 297.322C81.6458 298.229 82.775 300.83 81.8687 303.119C81.1703 304.888 79.4914 305.959 77.6935 305.959L77.7232 305.973Z" fill="black"/>
<path d="M125.403 303.328C123.561 303.328 121.733 302.882 120.054 302.005C117.32 300.578 115.314 298.169 114.393 295.226L99.4311 247.332C98.6882 244.969 100.011 242.457 102.373 241.728C104.735 241 107.246 242.308 107.975 244.672L122.937 292.566C123.145 293.22 123.591 293.77 124.215 294.082C124.824 294.409 125.537 294.468 126.191 294.26L150.469 286.679C152.831 285.936 155.342 287.259 156.071 289.622C156.813 291.986 155.491 294.498 153.129 295.226L128.85 302.807C127.721 303.164 126.547 303.342 125.388 303.342L125.403 303.328Z" fill="black"/>
<path d="M235.012 111.544C235.904 98.4633 235.711 85.2784 235.473 72.1529C234.908 40.9223 217.167 17.7484 187.02 9.36471C179.012 7.13502 170.528 5.75261 162.237 5.60396C149.994 5.38099 137.75 5.32153 125.507 5.32153C114.913 5.32153 95.2857 5.45531 84.7958 5.5891C80.9326 5.63369 77.8273 8.78499 77.8273 12.6498C77.8273 22.1632 77.8273 38.098 77.8273 39.2723C77.8273 112.748 77.8718 157.699 77.7233 231.175C77.7233 235.783 79.0605 237.046 83.3694 237.046C83.4734 237.046 83.5774 237.046 83.6814 237.046C92.6558 236.927 101.645 236.883 110.619 236.883C120.114 236.883 129.608 236.942 139.088 237.016C139.132 237.016 139.192 237.016 139.236 237.016C142.832 237.016 144.154 235.946 144.095 232.126C143.887 219.149 143.872 206.158 144.11 193.181C144.184 189.182 144.199 173.515 144.199 173.515C144.199 173.515 154.228 174.184 158.641 174.184C178.18 174.184 197.599 168.431 211.566 157.06C225.934 145.361 233.749 129.887 234.997 111.559L235.012 111.544Z" fill="white"/>
<path d="M83.3694 242.383C80.8286 242.383 77.6044 242.07 75.1676 239.633C72.7012 237.15 72.3892 233.806 72.3892 231.175C72.508 172.326 72.508 131.775 72.4932 80.2095V12.6498C72.4932 5.90126 77.9758 0.341886 84.7215 0.267563C94.9885 0.148646 114.616 0 125.507 0C139.964 0 151.673 0.0891878 162.341 0.282428C170.78 0.431074 179.576 1.75403 188.447 4.23642C220.615 13.1849 240.183 38.544 240.792 72.0637C241.015 84.3122 241.267 98.1809 240.317 111.916C238.935 132.013 230.406 148.587 214.939 161.177C200.645 172.816 180.126 179.505 158.656 179.505C156.338 179.505 152.638 179.342 149.518 179.163C149.518 184.084 149.488 190.817 149.444 193.285C149.221 205.355 149.206 218.034 149.429 232.052C149.459 234.192 149.236 237.314 146.888 239.707C144.555 242.085 141.405 242.353 139.251 242.353C129.578 242.279 120.099 242.219 110.619 242.219C101.14 242.219 92.1654 242.279 83.7557 242.383H83.3842H83.3694ZM83.0425 231.74C83.1465 231.74 83.2505 231.74 83.3694 231.74C92.0614 231.621 100.902 231.576 110.619 231.576C120.337 231.576 129.4 231.621 138.79 231.71C138.582 217.782 138.582 205.132 138.82 193.091C138.894 189.197 138.909 173.678 138.909 173.515V167.837L144.585 168.208C144.689 168.208 154.481 168.862 158.686 168.862C177.764 168.862 195.816 163.05 208.253 152.927C221.343 142.269 228.564 128.222 229.737 111.187C230.644 97.9133 230.406 84.2824 230.183 72.257C229.663 43.2858 213.423 22.2226 185.623 14.493C177.719 12.293 169.621 11.0593 162.177 10.9255C151.583 10.7323 139.935 10.6431 125.537 10.6431C114.676 10.6431 95.1222 10.7769 84.8849 10.9106C83.934 10.9106 83.1762 11.6985 83.1762 12.6498V80.2095C83.1762 131.775 83.1911 172.34 83.0722 231.19C83.0722 231.398 83.0722 231.576 83.0722 231.725L83.0425 231.74Z" fill="black"/>
<path d="M145.848 179.327C145.655 179.327 145.462 179.327 145.269 179.297C129.757 177.603 114.794 171.895 102.016 162.812C99.6242 161.103 99.0596 157.788 100.753 155.395C102.447 153.002 105.776 152.437 108.168 154.131C119.49 162.173 132.713 167.212 146.428 168.713C149.355 169.026 151.45 171.657 151.138 174.585C150.84 177.305 148.537 179.327 145.863 179.327H145.848Z" fill="black"/>
<path d="M164.183 127.315H168.373C169.637 127.315 170.661 126.291 170.661 125.026V51.922C170.661 50.6578 169.637 49.6329 168.373 49.6329H164.183C162.919 49.6329 161.895 50.6578 161.895 51.922V125.026C161.895 126.291 162.919 127.315 164.183 127.315Z" fill="black"/>
<path d="M139.474 127.315H143.664C144.928 127.315 145.952 126.291 145.952 125.026V51.922C145.952 50.6578 144.928 49.6329 143.664 49.6329H139.474C138.21 49.6329 137.186 50.6578 137.186 51.922V125.026C137.186 126.291 138.21 127.315 139.474 127.315Z" fill="black"/>
<path d="M14.6056 301.142L1.3075 287.839C-0.445763 286.085 -0.445763 283.26 1.3075 281.506C3.06077 279.752 5.88383 279.752 7.6371 281.506L20.9352 294.81C25.0955 298.972 30.6227 301.261 36.4917 301.261H166.1C171.984 301.261 177.496 298.972 181.656 294.81L195.995 280.466C197.748 278.712 200.571 278.712 202.324 280.466C204.077 282.22 204.077 285.044 202.324 286.798L187.986 301.142C182.147 306.984 174.361 310.21 166.1 310.21H36.4917C28.2306 310.21 20.4449 306.984 14.6056 301.142Z" fill="black"/>
<path d="M135.343 331.347C129.147 325.149 129.147 315.085 135.343 308.887C141.539 302.688 151.598 302.688 157.794 308.887C163.99 315.085 163.99 325.164 157.794 331.347C151.598 337.531 141.524 337.546 135.343 331.347ZM151.464 315.219C148.76 312.514 144.377 312.514 141.673 315.219C138.969 317.925 138.969 322.31 141.673 325.015C144.377 327.72 148.76 327.72 151.464 325.015C154.169 322.31 154.169 317.925 151.464 315.219Z" fill="black"/>
<path d="M49.0915 331.347C42.8956 325.149 42.8956 315.085 49.0915 308.887C55.2874 302.688 65.3464 302.688 71.5422 308.887C77.7381 315.085 77.7381 325.149 71.5422 331.347C65.3464 337.546 55.2725 337.546 49.0915 331.347ZM65.2126 315.219C62.5084 312.514 58.1253 312.514 55.4211 315.219C52.7169 317.925 52.7169 322.31 55.4211 325.015C58.1253 327.72 62.5084 327.72 65.2126 325.015C67.9168 322.31 67.9168 317.925 65.2126 315.219Z" fill="black"/>
</g>
<defs>
<clipPath id="clip0_3118_197">
<rect width="241" height="336" fill="white"/>
</clipPath>
</defs>
</svg>
